<svg xmlns="http://www.w3.org/2000/svg" width="170" height="36" viewBox="0 0 170 36" role="img" aria-labelledby="title desc">
  <title id="title">Buy Me a Coffee on Ko-fi</title>
  <desc id="desc">A blue support button linking to Ko-fi.</desc>
  <rect width="170" height="36" rx="18" fill="#29abe0"/>
  <g transform="translate(14 8)">
    <path d="M12.5 19c4.53 0 8.5-3.6 8.5-8.3 0-2.18-1.17-4.22-3.06-5.35-1.8-1.08-3.88-1.1-5.44-.05-.6.4-1.25.98-1.99 1.79-.74-.81-1.39-1.39-1.99-1.79-1.56-1.05-3.64-1.03-5.44.05C1.17 6.48 0 8.52 0 10.7 0 15.4 3.97 19 8.5 19c1.26 0 2.27-.58 3.01-1.3.74.72 1.75 1.3 2.99 1.3Z" fill="#fff"/>
    <path d="M11.5 16.12c3.45-2.72 5.64-5.18 5.64-7.42 0-2.16-1.58-3.74-3.52-3.74-1.19 0-2.02.55-2.96 1.77-.94-1.22-1.77-1.77-2.96-1.77-1.94 0-3.52 1.58-3.52 3.74 0 2.24 2.19 4.7 5.64 7.42.58.46 1.11.46 1.68 0Z" fill="#ff5f7a"/>
    <path d="M19.5 4h5.74c2.06 0 3.76 1.63 3.76 3.69 0 2.06-1.7 3.7-3.76 3.7h-1.99" fill="none" stroke="#fff" stroke-linecap="round" stroke-linejoin="round" stroke-width="2.2"/>
  </g>
  <text x="52" y="23" fill="#fff" font-family="Segoe UI, Arial, sans-serif" font-size="14" font-weight="700">Support on Ko-fi</text>
</svg>
